HIERARCHY
ROOT ui
{
	 OFFSET 0 0 0
	 CHANNELS 3 XPosition YPosition Z Position
	 EndSite
	 {
	 OFFSET 0 -1 0
	 }
}
ROOT li
{
	 OFFSET 0 0 0
	 CHANNELS 3 XPosition YPosition Z Position
	 EndSite
	 {
	 OFFSET 0 -1 0
	 }
}
ROOT ul
{
	 OFFSET 0 0 0
	 CHANNELS 3 XPosition YPosition Z Position
	 EndSite
	 {
	 OFFSET 0 -1 0
	 }
}
ROOT ll
{
	 OFFSET 0 0 0
	 CHANNELS 3 XPosition YPosition Z Position
	 EndSite
	 {
	 OFFSET 0 -1 0
	 }
}
ROOT tt
{
	 OFFSET 0 0 0
	 CHANNELS 3 XPosition YPosition Z Position
	 EndSite
	 {
	 OFFSET 0 -1 0
	 }
}
ROOT tb
{
	 OFFSET 0 0 0
	 CHANNELS 3 XPosition YPosition Z Position
	 EndSite
	 {
	 OFFSET 0 -1 0
	 }
}
ROOT td
{
	 OFFSET 0 0 0
	 CHANNELS 3 XPosition YPosition Z Position
	 EndSite
	 {
	 OFFSET 0 -1 0
	 }
}
ROOT v
{
	 OFFSET 0 0 0
	 CHANNELS 3 XPosition YPosition Z Position
	 EndSite
	 {
	 OFFSET 0 -1 0
	 }
}
ROOT bn
{
	 OFFSET 0 0 0
	 CHANNELS 3 XPosition YPosition Z Position
	 EndSite
	 {
	 OFFSET 0 -1 0
	 }
}
MOTION
Frames: 24
Frame Time: 0.002
0.0016922489404678344	-5.867080092430114E-4	0		0.35970095825195314	-2.307080810546875	0		-1.1331812744140626	-0.027460643768310547	0		-0.9045680541992187	-2.260071044921875	0		1.3243935546875	-0.7060519409179687	0		3.02750390625	-0.3586834716796875	0		4.461509765625	-0.10337803649902344	0		5.606595703125	0.023294208526611328	0		-0.07242342376708985	5.95551513671875	0		
-3.587790131568909E-4	0.006718793869018555	0		0.3386326904296875	-2.29736474609375	0		-1.086466796875	-0.031206628799438477	0		-0.8279029541015624	-2.263489013671875	0		1.3650899658203124	-0.7097355346679688	0		3.044482421875	-0.34988671875	0		4.47023095703125	-0.10644212341308594	0		5.60636767578125	0.02239630317687988	0		-0.05824074554443359	5.96546728515625	0		
-0.0013927279710769654	0.014003437995910644	0		0.39223495483398435	-2.304306884765625	0		-1.0984547119140624	-0.021649232864379885	0		-0.9108663940429688	-2.249363037109375	0		1.3438863525390625	-0.7090416259765625	0		3.03288623046875	-0.36745529174804686	0		4.4651953125	-0.09918817138671875	0		5.61615380859375	0.021288835525512695	0		-0.07253403472900391	5.954046875	0		
-7.661340236663818E-4	0.005257718086242676	0		0.38993896484375	-2.3069970703125	0		-1.0657479248046875	-0.02708033561706543	0		-0.8423563842773437	-2.261597412109375	0		1.3646458740234375	-0.7112664794921875	0		3.0481669921875	-0.3465937805175781	0		4.4649970703125	-0.10002287292480469	0		5.61595849609375	0.02042599296569824	0		-0.07258412933349609	5.9533232421875	0		
-0.004011814117431641	0.0016165759563446045	0		0.3855982971191406	-2.3126240234375	0		-1.070016357421875	-0.03167561912536621	0		-0.8795098876953125	-2.258465087890625	0		1.361384521484375	-0.7149375610351563	0		3.04264697265625	-0.36225433349609376	0		4.4726796875	-0.10700595855712891	0		5.615779296875	0.01959415054321289	0		-0.07361083221435546	5.95363818359375	0		
-0.0011095709800720214	0.0038624579906463624	0		0.37137130737304686	-2.314006103515625	0		-1.054318359375	-0.03869652557373047	0		-0.8329736328125	-2.2711787109375	0		1.3642730712890625	-0.7127178955078125	0		3.03665576171875	-0.35486773681640627	0		4.4646494140625	-0.10160176086425782	0		5.6056181640625	0.019022445678710937	0		-0.0726829833984375	5.9519306640625	0		
0.007718520164489746	0.002001678943634033	0		0.3581673583984375	-2.3153828125	0		-1.120271728515625	-0.02987127113342285	0		-0.8890548095703125	-2.266578857421875	0		1.369268798828125	-0.7065136108398438	0		3.04210009765625	-0.37370660400390626	0		4.4641435546875	-0.1183305435180664	0		5.61546826171875	0.018048395156860353	0		-0.057537288665771485	5.95993505859375	0		
0.002700493097305298	0.006480853080749512	0		0.39324307250976565	-2.305801513671875	0		-1.062305908203125	-0.026782106399536133	0		-0.836982666015625	-2.2573603515625	0		1.3639739990234374	-0.7140491333007812	0		3.047698974609375	-0.34149673461914065	0		4.4733212890625	-0.10522357177734375	0		5.62367041015625	0.0321624755859375	0		-0.05759073638916016	5.9593046875	0		
-0.0015022259950637816	0.001972108006477356	0		0.36206942749023435	-2.307712158203125	0		-1.1034774169921875	-0.029455537796020507	0		-0.8781533813476563	-2.2590361328125	0		1.3638525390625	-0.7146611938476563	0		3.0420693359375	-0.36500775146484377	0		4.47525	-0.10391069793701171	0		5.6152236328125	0.016691556930541994	0		-0.07284491729736328	5.95004345703125	0		
-0.0016016000509262085	0.0014067610502243042	0		0.386837890625	-2.31383642578125	0		-1.066586181640625	-0.030839561462402344	0		-0.8433870849609375	-2.265375732421875	0		1.3606824951171874	-0.7181673583984375	0		3.0419677734375	-0.3655920715332031	0		4.46583984375	-0.11829962158203125	0		5.6151240234375	0.01609124755859375	0		-0.07388470458984375	5.95050048828125	0		
-0.004753042221069336	-0.002056449890136719	0		0.33493768310546873	-2.3052099609375	0		-1.12885693359375	-0.038981758117675784	0		-0.9173263549804688	-2.258254638671875	0		1.3605953369140624	-0.7187020263671875	0		3.04188134765625	-0.36613140869140626	0		4.46575390625	-0.11884293365478515	0		5.60504150390625	0.015767887115478517	0		-0.07297599029541016	5.94894775390625	0		
0.002329735040664673	0.0042897300720214845	0		0.3907867736816406	-2.309954345703125	0		-1.087871826171875	-0.03739406585693359	0		-0.9123084106445313	-2.25486376953125	0		1.342617919921875	-0.7147962646484375	0		3.030147705078125	-0.35136105346679686	0		4.46399560546875	-0.10529444885253907	0		5.6049697265625	0.01527604866027832	0		-0.05880998611450195	5.95913671875	0		
0.0022714319229125974	0.0038292129039764404	0		0.3368633117675781	-2.3042099609375	0		-1.099703857421875	-0.027593997955322264	0		-0.8764329833984374	-2.25913037109375	0		1.36353515625	-0.7167193603515625	0		3.0475732421875	-0.37520452880859373	0		4.4687578125	-0.11384552764892578	0		5.60491162109375	0.014839383125305175	0		-0.05889363861083984	5.95867578125	0		
-0.0018618890047073363	-5.059499740600586E-4	0		0.3886671142578125	-2.31279052734375	0		-1.0609591064453125	-0.03789545822143554	0		-0.8415584106445313	-2.26434228515625	0		1.360429443359375	-0.7200664672851562	0		3.060085693359375	-0.3508800659179688	0		4.4687138671875	-0.11423617553710938	0		5.61486376953125	0.014234548568725585	0		-0.07322686767578125	5.94756494140625	0		
-0.001894083023071289	-8.969640135765075E-4	0		0.3596680297851563	-2.31253076171875	0		-1.0668779296875	-0.03316584396362305	0		-0.843631591796875	-2.267697265625	0		1.4013505859375	-0.7233556518554688	0		3.041682861328125	-0.3678313293457031	0		4.474859375	-0.10671282196044922	0		5.6090556640625	0.02403773880004883	0		-0.07430318450927734	5.9481953125	0		
-0.0019135710000991821	-0.001254538059234619	0		0.39542819213867186	-2.324682373046875	0		-1.1250162353515625	-0.03824540328979492	0		-0.9066470336914062	-2.268663330078125	0		1.360396240234375	-0.7207799682617188	0		3.035848388671875	-0.36001296997070314	0		4.4686650390625	-0.11486964416503906	0		5.6148115234375	0.01363059139251709	0		-0.07440919494628906	5.94783642578125	0		
0.002167854070663452	0.0023304638862609865	0		0.33892218017578124	-2.303736328125	0		-1.078078369140625	-0.041636001586914065	0		-0.827610595703125	-2.269762939453125	0		1.4123673095703124	-0.7232379150390625	0		3.057419921875	-0.37976885986328124	0		4.47445849609375	-0.12424640655517578	0		5.608984375	0.021537113189697265	0		-0.05834754943847656	5.95515234375	0		
0.0021743459701538087	0.0020373380184173584	0		0.3908084411621094	-2.312177001953125	0		-1.062830078125	-0.03128801536560059	0		-0.8743003540039063	-2.258031005859375	0		1.3634901123046874	-0.7184129028320313	0		3.0631669921875	-0.3471174011230469	0		4.4728017578125	-0.10940516662597656	0		5.61898828125	0.021138952255249022	0		-0.05846563339233399	5.95485791015625	0		
0.0021941161155700686	0.0017748680114746094	0		0.3618905944824219	-2.3117861328125	0		-1.0628095703125	-0.031575901031494144	0		-0.8413902587890625	-2.266045654296875	0		1.4014066162109375	-0.7244857177734375	0		3.041711669921875	-0.36883489990234375	0		4.4748681640625	-0.10760587310791016	0		5.6048330078125	0.013323486328125	0		-0.059521038055419924	5.957615234375	0		
-0.0018609230518341065	-0.002368726015090942	0		0.38686749267578124	-2.3175634765625	0		-1.0920572509765625	-0.044190807342529295	0		-0.9172122192382812	-2.261615966796875	0		1.3605130615234375	-0.7217728271484375	0		3.045864013671875	-0.3640777282714844	0		4.471771484375	-0.11365271759033203	0		5.61486328125	0.013016654968261718	0		-0.07488639831542969	5.9467158203125	0		
0.002271902084350586	0.0013356430530548095	0		0.34396746826171876	-2.31780517578125	0		-1.0627298583984375	-0.03207387924194336	0		-0.83343310546875	-2.2777060546875	0		1.4063902587890624	-0.7309570922851563	0		3.0618935546875	-0.3655505981445312	0		4.46395458984375	-0.10755461883544921	0		5.60491015625	0.01319333553314209	0		-0.07501187133789063	5.9465078125	0		
0.002328506946563721	0.0011554360389709473	0		0.33733978271484377	-2.30682275390625	0		-1.1266566162109375	-0.030870309829711916	0		-0.9000252075195313	-2.26443212890625	0		1.3695888671875	-0.7252770385742188	0		3.050318359375	-0.34937606811523436	0		4.46883642578125	-0.11570771789550781	0		5.60496630859375	0.013183639526367188	0		-0.07513619995117188	5.9463251953125	0		
-0.002514771938323975	0.005108529090881347	0		0.3913564147949219	-2.31316064453125	0		-1.0626041259765624	-0.03247668075561523	0		-0.8388790283203125	-2.26496533203125	0		1.409625	-0.7282734985351562	0		3.05499755859375	-0.36754193115234374	0		4.4689072265625	-0.11572249603271484	0		5.609208984375	0.021114551544189453	0		-0.060018211364746096	5.95683203125	0		
-0.001615213990211487	-0.003046684980392456	0		0.38946435546875	-2.31523828125	0		-1.0994954833984374	-0.030830081939697267	0		-0.914644287109375	-2.260451416015625	0		1.4017933349609375	-0.7251869506835937	0		3.05459375	-0.344561279296875	0		4.4641650390625	-0.10760404205322266	0		5.6093291015625	0.023161170959472656	0		-0.07537419128417969	5.94602880859375	0		
